<?xml version="1.0" encoding="UTF-8" standalone="no"?>
<svg
   inkscape:version="1.1.1 (3bf5ae0d25, 2021-09-20)"
   sodipodi:docname="Ãcono_azul_de_Silla_de_ruedas.svg"
   viewBox="0 0 1000.0003 1000"
   height="1000"
   width="1000.0004"
   id="svg10"
   version="1.1"
   xmlns:inkscape="http://www.inkscape.org/namespaces/inkscape"
   xmlns:sodipodi="http://sodipodi.sourceforge.net/DTD/sodipodi-0.dtd"
   xmlns="http://www.w3.org/2000/svg"
   xmlns:svg="http://www.w3.org/2000/svg"
   xmlns:rdf="http://www.w3.org/1999/02/22-rdf-syntax-ns#"
   xmlns:cc="http://creativecommons.org/ns#"
   xmlns:dc="http://purl.org/dc/elements/1.1/">
  <metadata
     id="metadata16">
    <rdf:RDF>
      <cc:Work
         rdf:about="">
        <dc:format>image/svg+xml</dc:format>
        <dc:type
           rdf:resource="http://purl.org/dc/dcmitype/StillImage" />
        <dc:title />
      </cc:Work>
    </rdf:RDF>
  </metadata>
  <defs
     id="defs14" />
  <sodipodi:namedview
     inkscape:current-layer="g18"
     inkscape:window-maximized="1"
     inkscape:window-y="-9"
     inkscape:window-x="-9"
     inkscape:cy="322.85754"
     inkscape:cx="-805.74012"
     inkscape:zoom="0.17809713"
     showgrid="false"
     id="namedview12"
     inkscape:window-height="991"
     inkscape:window-width="1920"
     inkscape:pageshadow="2"
     inkscape:pageopacity="0"
     guidetolerance="10"
     gridtolerance="10"
     objecttolerance="10"
     borderopacity="1"
     bordercolor="#666666"
     pagecolor="#ffffff"
     inkscape:pagecheckerboard="1" />
  <g
     transform="translate(-1301.424,-4.4703469)"
     id="g18"
     inkscape:label="Image"
     inkscape:groupmode="layer">
    <g
       id="g248846">
      <path
         style="fill:#003d88;fill-opacity:1;fill-rule:evenodd;stroke:none;stroke-width:10;stroke-linejoin:round"
         id="path246096"
         sodipodi:type="arc"
         sodipodi:cx="1451.424"
         sodipodi:cy="154.47035"
         sodipodi:rx="150"
         sodipodi:ry="150"
         sodipodi:start="0.444017"
         sodipodi:end="0.43765876"
         sodipodi:open="true"
         sodipodi:arc-type="arc"
         d="m 1586.879,218.90591 a 150,150 0 0 1 -199.6752,71.1217 150,150 0 0 1 -71.439,-199.561866 150,150 0 0 1 199.448,-71.756128 150,150 0 0 1 72.0731,199.333744" />
      <path
         style="fill:#003d88;fill-opacity:1;fill-rule:evenodd;stroke:none;stroke-width:10;stroke-linejoin:round"
         id="path246096-1"
         sodipodi:type="arc"
         sodipodi:cx="2151.4241"
         sodipodi:cy="154.47035"
         sodipodi:rx="150"
         sodipodi:ry="150"
         sodipodi:start="0.444017"
         sodipodi:end="0.43765876"
         sodipodi:open="true"
         sodipodi:arc-type="arc"
         d="m 2286.8791,218.90591 a 150,150 0 0 1 -199.6752,71.1217 150,150 0 0 1 -71.439,-199.561866 150,150 0 0 1 199.4481,-71.756128 150,150 0 0 1 72.073,199.333744" />
      <path
         style="fill:#003d88;fill-opacity:1;fill-rule:evenodd;stroke:none;stroke-width:10;stroke-linejoin:round"
         id="path246096-3"
         sodipodi:type="arc"
         sodipodi:cx="1451.424"
         sodipodi:cy="854.47034"
         sodipodi:rx="150"
         sodipodi:ry="150"
         sodipodi:start="0.444017"
         sodipodi:end="0.43765876"
         sodipodi:open="true"
         sodipodi:arc-type="arc"
         d="m 1586.879,918.9059 a 150,150 0 0 1 -199.6752,71.1217 150,150 0 0 1 -71.439,-199.56187 150,150 0 0 1 199.448,-71.75613 150,150 0 0 1 72.0731,199.33375" />
      <path
         style="fill:#003d88;fill-opacity:1;fill-rule:evenodd;stroke:none;stroke-width:10;stroke-linejoin:round"
         id="path246096-1-2"
         sodipodi:type="arc"
         sodipodi:cx="2151.4243"
         sodipodi:cy="854.47034"
         sodipodi:rx="150"
         sodipodi:ry="150"
         sodipodi:start="0.444017"
         sodipodi:end="0.43765876"
         sodipodi:open="true"
         sodipodi:arc-type="arc"
         d="m 2286.8793,918.9059 a 150,150 0 0 1 -199.6751,71.1217 150,150 0 0 1 -71.4391,-199.56187 150,150 0 0 1 199.4481,-71.75613 150,150 0 0 1 72.0731,199.33375" />
      <rect
         style="fill:#003d88;fill-opacity:1;fill-rule:evenodd;stroke:none;stroke-width:8.38853;stroke-linejoin:round"
         id="rect248736"
         width="1000"
         height="700"
         x="1301.424"
         y="154.47035" />
      <rect
         style="fill:#003d88;fill-opacity:1;fill-rule:evenodd;stroke:none;stroke-width:8.38853;stroke-linejoin:round"
         id="rect248736-1"
         width="1000"
         height="700"
         x="4.4703469"
         y="-2151.4241"
         transform="rotate(90)" />
    </g>
    <path
       sodipodi:nodetypes="ssssccsssssssssssssssssccccsscsscccccssscssssccsccccc"
       id="path22"
       d="m 1761.4525,849.56364 c 40.012,-6.87262 75.4982,-22.77412 107.1541,-48.016 10.6959,-8.52891 25.6838,-23.35926 33.762,-33.40749 6.6135,-8.22619 18.5031,-25.8734 23.1221,-34.31896 l 3.0794,-5.63066 -39.6825,-80.56487 c 0,0 -0.6151,2.11225 -0.8997,3.92664 -5.5566,35.40769 -21.4969,65.69666 -46.741,90.91802 -31.3656,31.33733 -71.2676,48.00575 -114.9848,48.03327 -20.1202,0.0127 -35.4437,-2.48942 -53.6422,-8.75889 -33.7336,-11.62127 -63.5118,-34.80455 -83.6235,-65.10352 -22.2339,-33.49609 -31.4689,-77.38041 -24.5743,-116.77704 3.8837,-22.19315 13.4585,-46.15945 25.656,-64.21913 10.4401,-15.45764 26.0739,-31.65205 39.6908,-41.11394 5.8478,-4.06344 7.4073,-5.58602 7.4562,-7.27912 0.1809,-6.27215 -4.7301,-64.22748 -5.4424,-64.22748 -1.6662,0 -20.5472,10.37845 -28.9419,15.90872 -33.7872,22.25815 -60.4879,52.54277 -78.7965,89.37331 -9.7796,19.67289 -16.277,39.41322 -20.3119,61.70943 -2.0613,11.39129 -2.2518,14.3986 -2.3047,36.39556 -0.062,26.07225 0.6022,32.47107 5.5195,53.09474 21.7091,91.05012 98.6198,159.37902 192.8504,171.33154 13.9461,1.76897 48.0404,1.06439 61.6549,-1.27413 z m 339.9714,-117.20667 -17.499,-44.06723 -68.1115,22.32321 -88.6513,-204.09274 -82.1824,0.23347 c -45.2002,0.12842 -92.2443,0.45939 -104.5422,0.73546 l -22.36,0.50199 -1.0168,-14.00914 c -0.5593,-7.70504 -1.2508,-16.61037 -1.5364,-19.78963 l -0.5197,-5.78047 h 75.5391 75.539 v -28.68828 -28.68827 h -78.4283 c -76.0209,0 -78.4282,-0.0491 -78.4282,-1.60035 0,-2.62401 -5.8943,-106.98702 -6.4755,-114.65139 l -0.5356,-7.06502 h 2.3104 c 3.9816,0 12.6086,-2.60351 18.6453,-5.62691 33.2949,-16.67491 44.5817,-57.93982 24.2183,-88.54305 -11.2696,-16.93672 -30.7919,-27.43408 -51.02,-27.43408 -33.5715,0 -60.8958,27.27068 -60.8443,60.7249 4.9445,54.27187 14.2051,124.30464 17.9375,179.05769 5.718,81.24777 10.625,149.93764 10.9049,152.64418 l 0.5085,4.92094 112.323,0.21724 112.3231,0.21727 93.132,215.065 z"
       style="fill:#ffffff;fill-opacity:1;stroke-width:0.856753" />
  </g>
</svg>
